<mxfile host="app.diagrams.net" modified="2024-05-28T11:02:34.483Z" agent="Mozilla/5.0 (Windows NT 10.0; Win64; x64) AppleWebKit/537.36 (KHTML, like Gecko) Chrome/125.0.0.0 Safari/537.36" etag="HKMHmkOX7dZ4EP9w-0Ob" version="24.4.9" type="device">
  <diagram name="Page-1" id="53xYrRXbXJfIl-E11IEJ">
    <mxGraphModel dx="1050" dy="569" grid="1" gridSize="10" guides="1" tooltips="1" connect="1" arrows="1" fold="1" page="1" pageScale="1" pageWidth="850" pageHeight="1100" math="0" shadow="0">
      <root>
        <mxCell id="0" />
        <mxCell id="1" parent="0" />
        <mxCell id="azAWWSU4M8sO32Rmp2Cw-1" value="Квартиросъемщик" style="shape=module;align=left;spacingLeft=20;align=center;verticalAlign=top;whiteSpace=wrap;html=1;" parent="1" vertex="1">
          <mxGeometry y="1" width="140" height="50" as="geometry" />
        </mxCell>
        <mxCell id="azAWWSU4M8sO32Rmp2Cw-5" value="" style="edgeStyle=orthogonalEdgeStyle;rounded=0;orthogonalLoop=1;jettySize=auto;html=1;" parent="1" source="azAWWSU4M8sO32Rmp2Cw-2" target="azAWWSU4M8sO32Rmp2Cw-4" edge="1">
          <mxGeometry relative="1" as="geometry" />
        </mxCell>
        <mxCell id="azAWWSU4M8sO32Rmp2Cw-2" value="Заявка" style="shape=module;align=left;spacingLeft=20;align=center;verticalAlign=top;whiteSpace=wrap;html=1;" parent="1" vertex="1">
          <mxGeometry x="200" width="210" height="50" as="geometry" />
        </mxCell>
        <mxCell id="azAWWSU4M8sO32Rmp2Cw-4" value="род работ&lt;br&gt;масштаб работ&lt;br&gt;желаемое время выполнения" style="whiteSpace=wrap;html=1;verticalAlign=top;spacingLeft=20;align=center;" parent="1" vertex="1">
          <mxGeometry x="210" y="50" width="200" height="60" as="geometry" />
        </mxCell>
        <mxCell id="azAWWSU4M8sO32Rmp2Cw-6" value="Диспетчер" style="shape=module;align=left;spacingLeft=20;align=center;verticalAlign=top;whiteSpace=wrap;html=1;" parent="1" vertex="1">
          <mxGeometry x="659" width="100" height="50" as="geometry" />
        </mxCell>
        <mxCell id="azAWWSU4M8sO32Rmp2Cw-8" value="Бригада" style="shape=module;align=left;spacingLeft=20;align=center;verticalAlign=top;whiteSpace=wrap;html=1;" parent="1" vertex="1">
          <mxGeometry x="819" width="100" height="50" as="geometry" />
        </mxCell>
        <mxCell id="azAWWSU4M8sO32Rmp2Cw-12" value="" style="line;strokeWidth=1;fillColor=none;align=left;verticalAlign=middle;spacingTop=-1;spacingLeft=3;spacingRight=3;rotatable=0;labelPosition=right;points=[];portConstraint=eastwest;strokeColor=inherit;" parent="1" vertex="1">
          <mxGeometry x="140" y="22" width="70" height="8" as="geometry" />
        </mxCell>
        <mxCell id="azAWWSU4M8sO32Rmp2Cw-13" value="" style="line;strokeWidth=1;fillColor=none;align=left;verticalAlign=middle;spacingTop=-1;spacingLeft=3;spacingRight=3;rotatable=0;labelPosition=right;points=[];portConstraint=eastwest;strokeColor=inherit;" parent="1" vertex="1">
          <mxGeometry x="589" y="21" width="80" height="8" as="geometry" />
        </mxCell>
        <mxCell id="azAWWSU4M8sO32Rmp2Cw-14" value="" style="line;strokeWidth=1;fillColor=none;align=left;verticalAlign=middle;spacingTop=-1;spacingLeft=3;spacingRight=3;rotatable=0;labelPosition=right;points=[];portConstraint=eastwest;strokeColor=inherit;" parent="1" vertex="1">
          <mxGeometry x="759" y="20" width="70" height="8" as="geometry" />
        </mxCell>
        <mxCell id="mMsD42qnNwdtwhWNKpZ4-1" value="" style="line;strokeWidth=1;fillColor=none;align=left;verticalAlign=middle;spacingTop=-1;spacingLeft=3;spacingRight=3;rotatable=0;labelPosition=right;points=[];portConstraint=eastwest;strokeColor=inherit;" vertex="1" parent="1">
          <mxGeometry x="410" y="21" width="80" height="8" as="geometry" />
        </mxCell>
        <mxCell id="mMsD42qnNwdtwhWNKpZ4-2" value="База данных" style="shape=datastore;whiteSpace=wrap;html=1;" vertex="1" parent="1">
          <mxGeometry x="490" width="99" height="99" as="geometry" />
        </mxCell>
      </root>
    </mxGraphModel>
  </diagram>
</mxfile>
